<!DOCTYPE svg PUBLIC "-//W3C//DTD SVG 20010904//EN" "http://www.w3.org/TR/2001/REC-SVG-20010904/DTD/svg10.dtd">
<svg version="1.0" xmlns="http://www.w3.org/2000/svg" width="46px" height="50px" viewBox="0 0 460 500" preserveAspectRatio="xMidYMid meet">
<g id="layer101" fill="#141414" stroke="none">
 <path d="M161 451 c-8 -5 -14 -26 -14 -50 0 -44 -15 -61 -56 -61 -24 0 -29 -28 -9 -48 18 -18 33 -15 74 13 43 29 80 32 113 9 21 -15 23 -22 18 -66 -4 -27 -3 -48 2 -46 60 24 121 54 121 59 0 15 -161 104 -224 123 -13 4 -16 11 -11 24 21 50 17 63 -14 43z"/>
 <path d="M88 200 c-29 -22 -49 -86 -37 -117 19 -52 124 -57 166 -8 33 38 28 51 -8 21 -17 -14 -39 -26 -50 -26 -29 0 -44 41 -30 81 23 68 7 87 -41 49z"/>
 </g>

</svg>